<?xml version="1.0" encoding="UTF-8" standalone="no"?>
<!-- Created with Inkscape (http://www.inkscape.org/) -->

<svg
   xmlns:dc="http://purl.org/dc/elements/1.1/"
   xmlns:cc="http://creativecommons.org/ns#"
   xmlns:rdf="http://www.w3.org/1999/02/22-rdf-syntax-ns#"
   xmlns:svg="http://www.w3.org/2000/svg"
   xmlns="http://www.w3.org/2000/svg"
   xmlns:sodipodi="http://sodipodi.sourceforge.net/DTD/sodipodi-0.dtd"
   xmlns:inkscape="http://www.inkscape.org/namespaces/inkscape"
   width="744.09448819"
   height="1052.3622047"
   id="svg5052"
   version="1.1"
   inkscape:version="0.48.5 r10040"
   inkscape:export-filename="C:\Users\Dennis.DEBOCOMBVBA\Documents\Projects\Mjølner\icon.png"
   inkscape:export-xdpi="299.98273"
   inkscape:export-ydpi="299.98273"
   sodipodi:docname="New document 8">
  <defs
     id="defs5054" />
  <sodipodi:namedview
     id="base"
     pagecolor="#ffffff"
     bordercolor="#666666"
     borderopacity="1.0"
     inkscape:pageopacity="0.0"
     inkscape:pageshadow="2"
     inkscape:zoom="1.4"
     inkscape:cx="85.994307"
     inkscape:cy="744.98795"
     inkscape:document-units="px"
     inkscape:current-layer="layer1"
     showgrid="false"
     inkscape:window-width="1920"
     inkscape:window-height="1018"
     inkscape:window-x="1912"
     inkscape:window-y="-8"
     inkscape:window-maximized="1" />
  <metadata
     id="metadata5057">
    <rdf:RDF>
      <cc:Work
         rdf:about="">
        <dc:format>image/svg+xml</dc:format>
        <dc:type
           rdf:resource="http://purl.org/dc/dcmitype/StillImage" />
        <dc:title></dc:title>
      </cc:Work>
    </rdf:RDF>
  </metadata>
  <g
     inkscape:label="Layer 1"
     inkscape:groupmode="layer"
     id="layer1">
    <path
       id="rect5289"
       style="fill:#552200;fill-opacity:1;stroke:none"
       d="m 85.223458,239.43277 7e-6,29.07977 63.860575,63.86058 29.05768,0.0221 17.83234,-17.83235 -92.94035,-92.94034 -17.810252,17.81025 z m 299.899972,128.86628 -24.90342,56.50225 1.76777,1.76777 40.70283,-40.70283 -17.56718,-17.56719 z m -27.37829,-27.37829 -24.90342,56.50225 21.85402,21.85402 24.90342,-56.50225 -21.85402,-21.85402 z m -27.37829,-27.37829 -24.90342,56.50225 21.85402,21.85402 24.90342,-56.50225 -21.85402,-21.85402 z m -27.37829,-27.37829 -24.90342,56.50225 21.85402,21.85402 24.90342,-56.50225 -21.85402,-21.85402 z m -27.37829,-27.37829 -24.90342,56.50225 21.85402,21.85402 24.90342,-56.50225 -21.85402,-21.85402 z m -49.3428,32.06287 18.91511,18.91511 24.90342,-56.50225 -3.11569,-3.11569 -40.70284,40.70283 z m -9.71748,-182.74252 29.07977,0 63.86058,63.86058 0.0221,29.05767 -17.83235,17.83235 -92.94035,-92.94035 17.81025,-17.81025 z m -100.62165,109.99058 83.57143,83.57143 79.28571,-79.28572 -83.57143,-83.57143 z" />
  </g>
</svg>
